<svg version="1" xmlns="http://www.w3.org/2000/svg" width="256" height="256" viewBox="0 0 192.000000 192.000000"><path d="M86.9 28.9c-3.4 3.3-3.9 4.5-3.9 8.2 0 2.4.7 5.5 1.5 6.9.8 1.4 1.7 3 2 3.6.7 1.2-20.8 39.3-23.3 41.1-3.2 2.6-7.5 1.4-17.8-4.7l-10.2-6 .5-4.2c.9-8.2-7.3-15.9-15.2-14.4-5 1-10.1 6-11 10.9C8.2 77.2 15.2 86 21.9 86c2.5 0 3 1.1 12.3 25.7l9.6 25.8h104.4l9.6-25.8c9.3-24.6 9.8-25.7 12.3-25.7 6.4 0 13.5-8.4 12.5-14.9s-7-12.1-13.2-12.1c-7 0-14 8.1-12.9 15.2l.5 3.7-10.2 6c-10.4 6.2-14.8 7.4-18 4.8-.9-.6-6.2-9.3-11.9-19.2-5.6-9.9-10.7-18.7-11.2-19.6-.8-1.3-.5-2.4 1.1-4.4 1.6-2 2.2-4.2 2.2-7.8 0-4.4-.4-5.3-3.9-8.8-3.5-3.5-4.4-3.9-9.1-3.9-4.7 0-5.6.4-9.1 3.9zM36 147.9c-.5 1.1-1 4.4-1 7.5 0 9.2-4.1 8.6 61 8.6 65.6 0 61 .7 61-9.4 0-3.5-.5-6.7-1.2-7.4-.9-.9-15.6-1.2-60-1.2-57 0-58.8.1-59.8 1.9z"/></svg>